<svg width="100" height="80" viewBox="0 0 100 80" fill="none" xmlns="http://www.w3.org/2000/svg">
<path d="M16.2277 79.651C15.8572 79.651 15.5015 79.5893 15.1634 79.4629C14.8283 79.3365 14.5108 79.1424 14.2227 78.8837L14.7313 78.2781C14.9635 78.481 15.1987 78.6338 15.4368 78.7426C15.675 78.8514 15.9454 78.9043 16.2424 78.9043C16.504 78.9043 16.7127 78.8485 16.8656 78.7397C17.0185 78.6309 17.0949 78.4839 17.0949 78.3016V78.2869C17.0949 78.1987 17.0802 78.1252 17.0508 78.0576C17.0214 77.99 16.9685 77.9283 16.8862 77.8695C16.8068 77.8107 16.6951 77.7548 16.5569 77.7048C16.4158 77.6549 16.2365 77.6049 16.0101 77.5549C15.7514 77.4932 15.525 77.4255 15.3251 77.352C15.1252 77.2756 14.9576 77.1845 14.8224 77.0757C14.6872 76.9699 14.5813 76.8376 14.5108 76.6818C14.4402 76.5259 14.4049 76.3407 14.4049 76.1202V76.1055C14.4049 75.8997 14.4461 75.7116 14.5255 75.5411C14.6078 75.3676 14.7195 75.2236 14.8635 75.1001C15.0047 74.9796 15.1781 74.8825 15.378 74.8149C15.5809 74.7473 15.7984 74.712 16.0366 74.712C16.3893 74.712 16.7069 74.762 16.9861 74.8649C17.2654 74.9678 17.53 75.1148 17.777 75.3147L17.3272 75.9527C17.1067 75.7939 16.8891 75.6704 16.6745 75.5852C16.4599 75.4999 16.2424 75.4588 16.0248 75.4588C15.7749 75.4588 15.5838 75.5117 15.4456 75.6234C15.3104 75.7322 15.2428 75.8674 15.2428 76.0291V76.0438C15.2428 76.1349 15.2575 76.2143 15.2898 76.2878C15.3222 76.3584 15.381 76.423 15.4662 76.4789C15.5485 76.5348 15.6661 76.5906 15.8161 76.6406C15.966 76.6906 16.1542 76.7435 16.3835 76.7964C16.6363 76.8611 16.8597 76.9316 17.0538 77.0081C17.2478 77.0875 17.4095 77.1815 17.5388 77.2932C17.6682 77.405 17.7652 77.5373 17.8299 77.6843C17.8975 77.8312 17.9298 78.0047 17.9298 78.2017V78.2164C17.9298 78.4398 17.8887 78.6397 17.8034 78.822C17.7182 78.9984 17.6006 79.1513 17.4536 79.2718C17.3036 79.3953 17.1243 79.4893 16.9156 79.554C16.7069 79.6187 16.4746 79.6481 16.2247 79.6481" fill="#988863"/>
<path d="M21.4916 75.5645H19.9688V74.7825H23.8641V75.5645H22.3412V79.5834H21.4916V75.5645Z" fill="#988863"/>
<path d="M26.1211 74.7825H29.6725V75.544H26.956V76.7787H29.3638V77.5431H26.956V78.8249H29.7077V79.5834H26.1211V74.7825Z" fill="#988863"/>
<path d="M32.082 74.7825H32.9228V78.8249H35.4453V79.5834H32.082V74.7825Z" fill="#988863"/>
<path d="M37.7031 74.7825H38.541V78.8249H41.0634V79.5834H37.7031V74.7825Z" fill="#988863"/>
<path d="M43.3203 74.7825H46.8746V75.544H44.1582V76.7787H46.5659V77.5431H44.1582V78.8249H46.907V79.5834H43.3203V74.7825Z" fill="#988863"/>
<path d="M49.293 74.7825H50.072L52.6386 78.1016V74.7825H53.4764V79.5834H52.7709L50.1279 76.1702V79.5834H49.293V74.7825Z" fill="#988863"/>
<path d="M58.3056 78.8366C58.5908 78.8366 58.8201 78.7808 58.9847 78.6691C59.1493 78.5603 59.2287 78.3956 59.2287 78.1751V78.1605C59.2287 77.9547 59.1464 77.7959 58.9876 77.6842C58.8259 77.5725 58.579 77.5137 58.2439 77.5137H56.9121V78.8337H58.3056V78.8366ZM58.0586 76.8081C58.332 76.8081 58.5496 76.7552 58.7142 76.6464C58.8789 76.5376 58.9612 76.3759 58.9612 76.1555V76.1437C58.9612 75.9526 58.8877 75.7997 58.7466 75.6939C58.6025 75.5881 58.3938 75.5351 58.1204 75.5351H56.9121V76.8111H58.0616L58.0586 76.8081ZM56.0742 74.7825H58.2233C58.776 74.7825 59.1934 74.9236 59.4757 75.2088C59.6903 75.4234 59.7961 75.691 59.7961 76.0055V76.0202C59.7961 76.1672 59.7755 76.2966 59.7373 76.4083C59.6991 76.52 59.6491 76.62 59.5874 76.7023C59.5256 76.7875 59.4521 76.861 59.3698 76.9257C59.2875 76.9904 59.2023 77.0462 59.117 77.0903C59.2581 77.1403 59.3875 77.1991 59.5021 77.2638C59.6197 77.3314 59.7197 77.4108 59.802 77.499C59.8843 77.5931 59.9519 77.6989 59.996 77.8224C60.0401 77.9458 60.0636 78.0899 60.0636 78.2545V78.2692C60.0636 78.4838 60.0225 78.672 59.9372 78.8396C59.852 79.0042 59.7344 79.1394 59.5786 79.2512C59.4227 79.3599 59.2346 79.4452 59.0141 79.501C58.7965 79.5569 58.5555 79.5863 58.2909 79.5863H56.0742V74.7855V74.7825Z" fill="#988863"/>
<path d="M64.6972 78.8895C64.9353 78.8895 65.1529 78.8454 65.3498 78.7572C65.5468 78.669 65.7173 78.5485 65.8584 78.3956C65.9996 78.2398 66.1113 78.0634 66.1877 77.8576C66.27 77.6518 66.3053 77.4343 66.3053 77.1991V77.1844C66.3053 76.9521 66.2671 76.7287 66.1877 76.5229C66.1083 76.3142 65.9966 76.1349 65.8526 75.982C65.7085 75.8291 65.538 75.7056 65.3381 75.6145C65.1352 75.5234 64.9206 75.4763 64.6825 75.4763C64.4444 75.4763 64.2297 75.5204 64.0298 75.6086C63.8329 75.6968 63.6624 75.8203 63.5212 75.9702C63.3801 76.1231 63.2684 76.3024 63.192 76.5112C63.1097 76.714 63.0714 76.9345 63.0714 77.1697V77.1844C63.0714 77.4166 63.1097 77.6371 63.192 77.8459C63.2713 78.0546 63.3831 78.2339 63.5271 78.3898C63.6712 78.5426 63.8417 78.6661 64.0416 78.7572C64.2415 78.8484 64.4591 78.8925 64.6972 78.8925M64.6854 79.6657C64.315 79.6657 63.9769 79.601 63.6712 79.4687C63.3654 79.3393 63.1008 79.16 62.8833 78.9366C62.6628 78.7131 62.4923 78.4515 62.3688 78.1516C62.2453 77.8518 62.1836 77.5342 62.1836 77.1962V77.1815C62.1836 76.8434 62.2453 76.5259 62.3688 76.2231C62.4923 75.9232 62.6657 75.6615 62.8892 75.4352C63.1126 75.2088 63.3801 75.0295 63.6859 74.8972C63.9916 74.7649 64.3326 74.6973 64.7001 74.6973C65.0676 74.6973 65.4086 74.7649 65.7144 74.8942C66.0201 75.0236 66.2847 75.2 66.5023 75.4263C66.7228 75.6498 66.8933 75.9114 67.0168 76.2084C67.1402 76.5082 67.202 76.8287 67.202 77.1668V77.1815C67.202 77.5196 67.1432 77.8371 67.0168 78.1369C66.8933 78.4339 66.7198 78.6984 66.4964 78.9248C66.273 79.1512 66.0084 79.3305 65.7026 79.4628C65.3969 79.5951 65.0559 79.6627 64.6854 79.6627" fill="#988863"/>
<path d="M71.2833 79.651C70.9129 79.651 70.5601 79.5893 70.222 79.4629C69.8839 79.3365 69.5694 79.1424 69.2812 78.8837L69.7899 78.2781C70.0221 78.481 70.2602 78.6338 70.4954 78.7426C70.7336 78.8514 71.004 78.9043 71.3068 78.9043C71.5655 78.9043 71.7713 78.8485 71.9242 78.7397C72.0771 78.6309 72.1535 78.4839 72.1535 78.3016V78.2869C72.1535 78.1987 72.1388 78.1252 72.1094 78.0576C72.0771 77.99 72.0242 77.9283 71.9448 77.8695C71.8625 77.8107 71.7537 77.7548 71.6126 77.7048C71.4744 77.6549 71.2892 77.6049 71.0658 77.5549C70.81 77.4932 70.5807 77.4255 70.3808 77.352C70.1809 77.2756 70.0133 77.1845 69.878 77.0757C69.7428 76.9699 69.6399 76.8376 69.5694 76.6818C69.4988 76.5259 69.4606 76.3407 69.4606 76.1202V76.1055C69.4606 75.8997 69.5017 75.7116 69.5841 75.5411C69.6664 75.3676 69.7781 75.2236 69.9221 75.1001C70.0633 74.9796 70.2367 74.8825 70.4366 74.8149C70.6395 74.7473 70.857 74.712 71.0952 74.712C71.445 74.712 71.7625 74.762 72.0447 74.8649C72.324 74.9678 72.5916 75.1148 72.8356 75.3147L72.3828 75.9527C72.1623 75.7939 71.9448 75.6704 71.7302 75.5852C71.5156 75.4999 71.3009 75.4588 71.0775 75.4588C70.8306 75.4588 70.6395 75.5117 70.5042 75.6234C70.3661 75.7322 70.2984 75.8674 70.2984 76.0291V76.0438C70.2984 76.1349 70.3161 76.2143 70.3455 76.2878C70.3778 76.3584 70.4366 76.423 70.5219 76.4789C70.6071 76.5348 70.7247 76.5906 70.8717 76.6406C71.0187 76.6906 71.2098 76.7435 71.4362 76.7964C71.689 76.8611 71.9124 76.9316 72.1094 77.0081C72.3034 77.0875 72.4651 77.1815 72.5916 77.2932C72.7209 77.405 72.8179 77.5373 72.8826 77.6843C72.9473 77.8312 72.9826 78.0047 72.9826 78.2017V78.2164C72.9826 78.4398 72.9385 78.6397 72.8561 78.822C72.7738 78.9984 72.6562 79.1513 72.5063 79.2718C72.3564 79.3953 72.177 79.4893 71.9654 79.554C71.7566 79.6187 71.5244 79.6481 71.2745 79.6481" fill="#988863"/>
<path d="M77.5895 79.6657C77.2397 79.6657 76.9134 79.601 76.6164 79.4746C76.3195 79.3482 76.0608 79.1718 75.8433 78.9484C75.6257 78.7279 75.4522 78.4662 75.3288 78.1634C75.2024 77.8606 75.1406 77.5402 75.1406 77.1992V77.1844C75.1406 76.8405 75.2024 76.52 75.3229 76.2202C75.4464 75.9203 75.6169 75.6587 75.8374 75.4293C76.0579 75.2059 76.3195 75.0266 76.6223 74.8972C76.9222 74.7679 77.2573 74.7003 77.6219 74.7003C77.8424 74.7003 78.0423 74.7179 78.2216 74.7561C78.401 74.7943 78.5685 74.8443 78.7185 74.9119C78.8713 74.9766 79.0095 75.056 79.1389 75.1471C79.2653 75.2382 79.3887 75.3411 79.5005 75.4499L78.9595 76.0732C78.7684 75.8938 78.5656 75.7527 78.351 75.641C78.1364 75.5293 77.8894 75.4764 77.616 75.4764C77.3867 75.4764 77.178 75.5205 76.981 75.6087C76.787 75.6969 76.6194 75.8203 76.4783 75.9703C76.3372 76.1231 76.2284 76.3025 76.149 76.5112C76.0696 76.7141 76.0314 76.9346 76.0314 77.1697V77.1844C76.0314 77.4167 76.0696 77.6372 76.149 77.8459C76.2284 78.0546 76.3372 78.2369 76.4783 78.3927C76.6194 78.5486 76.787 78.6691 76.981 78.7573C77.175 78.8484 77.3867 78.8896 77.616 78.8896C77.91 78.8896 78.1599 78.8337 78.3715 78.722C78.5832 78.6103 78.792 78.4574 78.9948 78.2663L79.5357 78.8161C79.4123 78.9484 79.2829 79.066 79.1477 79.1689C79.0154 79.2718 78.8684 79.36 78.7126 79.4364C78.5568 79.5128 78.3863 79.5687 78.201 79.6069C78.0188 79.6451 77.813 79.6657 77.5866 79.6657" fill="#988863"/>
<path d="M81.7852 74.7825H82.6201V76.7787H84.925V74.7825H85.7628V79.5834H84.925V77.5607H82.6201V79.5834H81.7852V74.7825Z" fill="#988863"/>
<path d="M66.1549 37.3255H33.8485V38.2104H66.1549V37.3255ZM49.3241 2.74374C49.3476 2.35568 49.0742 2.01465 48.6802 2.01171H48.6773C48.448 2.01171 48.2657 2.18222 48.2657 2.38801C48.2657 2.5938 48.4509 2.76432 48.6802 2.76432C48.7567 2.76432 48.8243 2.7408 48.886 2.70846C48.8772 2.75844 48.8537 2.87016 48.7831 3.02597C48.6891 3.24058 48.5568 3.60219 48.5568 3.92852C48.5568 4.21368 48.7302 4.6576 49.2182 4.7605C48.8155 3.96379 49.3064 3.03479 49.327 2.7408M50.0002 0.888672C49.3182 1.67362 49.3123 1.77946 50.0002 2.22338C50.6882 1.77946 50.6823 1.67362 50.0002 0.888672ZM50.0091 2.67612C49.3006 3.52281 49.3917 4.43711 49.9797 4.89573C50.6588 4.43123 50.6705 3.56397 50.0091 2.67612ZM51.7406 2.38801C51.7406 2.17928 51.5554 2.01171 51.3291 2.01171H51.3261C50.9322 2.01465 50.6588 2.35568 50.6823 2.74374C50.6999 3.03773 51.1938 3.96379 50.7911 4.76344C51.2791 4.6576 51.4525 4.21662 51.4525 3.93145C51.4525 3.60512 51.3202 3.24352 51.2262 3.0289C51.1556 2.87309 51.1321 2.76138 51.1262 2.7114C51.188 2.74374 51.2556 2.76726 51.3291 2.76726C51.5584 2.76726 51.7436 2.59675 51.7436 2.39095M41.6598 6.08344H58.3466V5.48959H41.6598V6.08344ZM46.6223 15.2941C46.7135 15.2941 46.7958 15.2647 46.8693 15.2265C46.8605 15.2882 46.8311 15.4205 46.7458 15.6116C46.6311 15.8732 46.4724 16.3113 46.4724 16.7052C46.4724 17.0992 46.7458 17.743 47.5454 17.743C48.3451 17.743 48.448 17.1727 48.4421 17.1256C48.4362 17.0815 48.3862 17.0992 48.351 17.1315C48.3157 17.1638 47.8188 17.4373 47.4043 17.2373C46.9898 17.0374 46.9927 16.6494 47.0368 16.4495C47.1103 16.1261 47.3808 15.6233 47.4043 15.2676C47.4337 14.7972 47.1015 14.3857 46.6253 14.3798C46.6253 14.3798 46.6253 14.3798 46.6223 14.3798C46.346 14.3798 46.1225 14.5856 46.1225 14.8355C46.1225 15.0854 46.3489 15.2941 46.6253 15.2941M53.2547 15.6116C53.1694 15.4234 53.143 15.2882 53.1312 15.2265C53.2047 15.2647 53.287 15.2941 53.3782 15.2941C53.6574 15.2941 53.8809 15.0883 53.8809 14.8355C53.8809 14.5826 53.6575 14.3798 53.3811 14.3798C53.3811 14.3798 53.3782 14.3798 53.3752 14.3798C52.896 14.3827 52.5638 14.7972 52.5962 15.2676C52.6197 15.6233 52.8901 16.129 52.9607 16.4495C53.0048 16.6494 53.0107 17.0374 52.5962 17.2373C52.1816 17.4373 51.6877 17.1638 51.6495 17.1315C51.6142 17.0992 51.5643 17.0815 51.5584 17.1256C51.5525 17.1697 51.6554 17.743 52.455 17.743C53.2547 17.743 53.5281 17.0992 53.5281 16.7052C53.5281 16.3113 53.3693 15.8732 53.2547 15.6116ZM54.0367 16.2966C54.0661 16.3319 54.0808 16.8699 54.0044 17.1697C53.9456 17.399 53.7986 17.6019 53.6869 17.743H54.4836C54.5012 17.6137 54.51 17.4608 54.51 17.2814C54.51 16.814 54.1337 16.2819 54.1073 16.2525C54.0632 16.1996 54.0014 16.2525 54.0367 16.2966ZM47.8953 14.7825C47.9247 14.8149 47.9776 15.3294 47.9276 15.6204C47.8776 15.9115 47.6719 16.179 47.5866 16.3025C47.5866 16.3025 47.5866 16.3025 47.5866 16.3054C47.5543 16.3613 47.5278 16.4201 47.5278 16.4877C47.5278 16.6994 47.716 16.8728 47.9511 16.8728C48.1011 16.8728 48.2275 16.7964 48.3039 16.6876H48.3098C48.3128 16.6817 48.3186 16.67 48.3245 16.6611C48.3333 16.6435 48.3422 16.6258 48.348 16.6082C48.4039 16.4642 48.4568 16.1702 48.4186 15.6969C48.3833 15.25 47.9835 14.762 47.957 14.7355C47.9129 14.6885 47.8541 14.7414 47.8923 14.7825M53.0518 9.53193H46.9516V10.1317H53.0518V9.53193ZM47.2985 10.8431C47.1633 12.069 46.5635 13.1656 46.1255 13.8241H47.0163C47.3191 13.1744 47.7336 12.0896 47.8336 10.8431H47.2985ZM50.3413 10.8372H49.6622C49.571 12.1367 49.3946 13.1832 49.2623 13.8241H50.744C50.6117 13.1832 50.4324 12.1367 50.3442 10.8372M53.8779 13.8241C53.4399 13.1656 52.8402 12.069 52.7049 10.8431H52.1699C52.2698 12.0896 52.6844 13.1744 52.9872 13.8241H53.8779ZM52.4727 16.4906C52.4727 16.423 52.4492 16.3642 52.4139 16.3083C52.4139 16.3083 52.4139 16.3083 52.4139 16.3054C52.3316 16.1819 52.1258 15.9144 52.0729 15.6234C52.0199 15.3323 52.0729 14.8149 52.1052 14.7855C52.1434 14.7443 52.0846 14.6914 52.0405 14.7384C52.0141 14.7649 51.6142 15.2529 51.579 15.6998C51.5437 16.1731 51.5937 16.4671 51.6495 16.6112C51.6554 16.6288 51.6642 16.6464 51.673 16.6641C51.6789 16.6729 51.6819 16.6846 51.6877 16.6905H51.6936C51.7701 16.7993 51.8965 16.8757 52.0464 16.8757C52.2786 16.8757 52.4697 16.7023 52.4697 16.4906M51.4202 13.8241H52.4374C52.164 13.1627 51.7759 12.0632 51.6407 10.8372H51.0204C51.1086 12.1455 51.2879 13.195 51.4202 13.8241ZM51.0351 17.0521C50.9822 16.7493 51.0351 16.2113 51.0674 16.179C51.1086 16.1378 51.0468 16.082 50.9998 16.1319C50.9733 16.1613 50.5559 16.667 50.5206 17.1315C50.5 17.3785 50.5059 17.5784 50.5206 17.7371H51.3702C51.2762 17.6019 51.0851 17.3402 51.0351 17.0521ZM50.4912 15.7821C50.6558 15.591 50.9175 15.4617 51.0557 15.394L51.1262 15.3558C51.188 15.3147 51.235 15.2706 51.2673 15.2206C51.3261 15.1236 51.3408 15.0119 51.3055 14.906C51.2732 14.8002 51.1938 14.712 51.088 14.6561C50.9586 14.5915 50.8028 14.5915 50.6705 14.6503H50.6617L50.6382 14.6591C50.6323 14.662 50.6264 14.6679 50.6088 14.6767C50.5912 14.6885 50.5735 14.7002 50.5559 14.7149C50.4765 14.7796 50.2678 14.9795 50.0208 15.4617C50.012 15.4793 50.0032 15.4999 49.9944 15.5175C49.9855 15.4999 49.9767 15.4793 49.9679 15.4617C49.721 14.9795 49.5122 14.7796 49.4328 14.7179C49.4152 14.7032 49.4005 14.6914 49.3711 14.6738C49.3652 14.6679 49.3564 14.665 49.3446 14.6591L49.3211 14.6503C49.1859 14.5915 49.0301 14.5915 48.9037 14.6561C48.6832 14.7678 48.6038 15.0207 48.7273 15.2206C48.7596 15.2735 48.8067 15.3176 48.8684 15.3558L48.9389 15.394C49.0801 15.4646 49.3417 15.594 49.5034 15.7821C49.6916 15.9997 49.8856 16.4142 49.8915 16.4553C49.8797 16.5053 49.912 16.5494 49.962 16.5582C49.9679 16.5582 49.9738 16.5582 49.9797 16.5582C49.9826 16.5582 49.9885 16.5553 49.9914 16.5553C49.9944 16.5553 49.9973 16.5582 50.0032 16.5582C50.0091 16.5582 50.0149 16.5582 50.0208 16.5582C50.0708 16.5494 50.1031 16.5024 50.0943 16.4612C50.1002 16.4112 50.2942 15.9967 50.4824 15.7792M49.4799 17.7342C49.4946 17.5754 49.5005 17.3785 49.4799 17.1286C49.4446 16.6611 49.0271 16.1555 49.0007 16.129C48.9536 16.079 48.8948 16.1349 48.9331 16.176C48.9654 16.2084 49.0213 16.7464 48.9654 17.0492C48.9154 17.3373 48.7214 17.599 48.6303 17.7342H49.4799ZM48.5832 13.8241C48.7155 13.195 48.8949 12.1455 48.983 10.8372H48.3627C48.2275 12.0632 47.8424 13.1627 47.566 13.8241H48.5832ZM45.5199 17.7401H46.3166C46.2078 17.6019 46.0579 17.3961 45.9991 17.1668C45.9226 16.8669 45.9373 16.3289 45.9667 16.2936C46.002 16.2495 45.9403 16.1966 45.8962 16.2495C45.8697 16.2789 45.4934 16.8111 45.4934 17.2785C45.4934 17.4578 45.5052 17.6078 45.5199 17.7401ZM44.0734 7.98555C44.4115 8.26189 44.9231 8.82341 45.808 8.82341H46.4312C46.1225 8.75874 45.8315 8.62938 45.5698 8.42358C45.2112 8.13842 44.9495 7.74447 44.782 7.28291C45.2229 7.30349 45.6404 7.44461 45.9991 7.72978C46.346 8.00613 46.6017 8.38537 46.7693 8.82635H47.8336C47.7101 8.74991 47.5925 8.66172 47.4896 8.55588C47.1574 8.21192 46.978 7.73566 46.931 7.1859C47.4425 7.21824 47.8923 7.39463 48.2246 7.7386C48.498 8.02377 48.6655 8.39712 48.7449 8.82635H49.4828C49.3417 8.62937 49.2653 8.42653 49.2653 8.21486C49.2653 7.81797 49.5357 7.44167 50.0032 7.10652C50.4706 7.44167 50.7411 7.81797 50.7411 8.21486C50.7411 8.42653 50.6647 8.62937 50.5235 8.82635H51.2615C51.3408 8.39712 51.5084 8.02377 51.7818 7.7386C52.114 7.39463 52.5609 7.21824 53.0754 7.1859C53.0283 7.73566 52.849 8.20898 52.5168 8.55588C52.4139 8.66466 52.2992 8.75285 52.1728 8.82635H53.2371C53.4046 8.38537 53.6575 8.00613 54.0073 7.72978C54.366 7.44461 54.7864 7.30349 55.2244 7.28291C55.0568 7.74447 54.7952 8.13842 54.4365 8.42358C54.1749 8.62938 53.8838 8.76168 53.5751 8.82341H54.1984C55.0833 8.82341 55.5978 8.26189 55.9329 7.98555C56.3621 7.62982 57.4381 6.82429 57.591 6.71552H42.4212C42.5741 6.82429 43.6501 7.62982 44.0764 7.98555M30.0973 19.1982H69.9032V18.5985H30.0973V19.1982ZM46.002 32.4101C46.002 32.4101 47.1015 30.6314 47.2867 28.3765H46.6076C46.3666 30.5844 44.7702 32.4101 44.7702 32.4101H46.002ZM47.9835 28.3707C47.7395 30.5756 46.7664 32.413 46.7664 32.413H48.1422C48.1422 32.413 48.595 30.7902 48.7567 28.3707H47.9835ZM43.9911 32.4159C43.9911 32.4159 45.7462 30.3933 46.0461 28.3736H45.5934C45.173 30.264 42.9298 32.4071 42.9298 32.4071L43.9911 32.4189V32.4159ZM54.5747 26.9154H45.4258V27.5152H54.5747V26.9154ZM50.3795 28.3707H49.6239C49.4711 30.5638 49.0948 32.1043 49.0124 32.413H50.988C50.9087 32.1043 50.5294 30.5638 50.3765 28.3707M51.8582 32.4159H53.2341C53.2341 32.4159 52.261 30.5785 52.017 28.3736H51.2438C51.4055 30.7961 51.8582 32.4159 51.8582 32.4159ZM53.3958 28.3765H52.7167C52.899 30.6314 54.0014 32.4101 54.0014 32.4101H55.2332C55.2332 32.4101 53.6369 30.5844 53.3958 28.3765ZM54.4101 28.3707H53.9603C54.2572 30.3933 56.0152 32.413 56.0152 32.413L57.0765 32.4012C57.0765 32.4012 54.8334 30.2581 54.413 28.3677M58.6964 33.4625H41.31V34.3445H58.6964V33.4625ZM41.5569 25.275C40.2251 24.3136 39.058 22.9231 38.4377 21.5472C38.326 21.2973 38.3289 21.0327 38.4465 20.8416C38.5494 20.6799 38.7229 20.5859 38.9287 20.5859C39.3314 20.5859 39.7518 20.9592 39.9076 21.4531C40.2692 22.6026 40.8631 23.5698 41.4922 24.5929C41.5863 24.7487 41.6833 24.9045 41.7774 25.0604C41.8156 25.125 41.8068 25.2074 41.7509 25.2573C41.7215 25.2867 41.6833 25.3014 41.6451 25.3014C41.6128 25.3014 41.5834 25.2926 41.5569 25.272M41.0953 21.6266C41.0042 21.3649 41.0277 21.1033 41.163 20.9063C41.2776 20.7387 41.4658 20.6417 41.6774 20.6417C42.0978 20.6417 42.5153 21.0357 42.627 21.5354C42.8064 22.3439 43.1003 23.0877 43.412 23.8785C43.5737 24.2872 43.7412 24.7105 43.8882 25.1427C43.9147 25.2191 43.8882 25.3073 43.8206 25.3544C43.7883 25.3749 43.753 25.3867 43.7177 25.3867C43.6766 25.3867 43.6354 25.372 43.6031 25.3426C42.5565 24.4548 41.5951 23.0289 41.0983 21.6207M45.6375 25.4837C44.8261 24.5812 44.1234 23.17 43.7589 21.7118C43.6913 21.4384 43.7354 21.165 43.8853 20.9681C44.0146 20.7946 44.2087 20.6976 44.4292 20.6976C44.8672 20.6976 45.2817 21.1209 45.3464 21.6413C45.4258 22.2616 45.5551 22.9084 45.6757 23.5346C45.7903 24.1137 45.9079 24.7164 45.9902 25.3073C46.002 25.3985 45.9579 25.4896 45.8756 25.5307C45.8462 25.5454 45.8168 25.5513 45.7874 25.5513C45.7315 25.5513 45.6757 25.5278 45.6375 25.4837ZM46.6576 20.9592C46.7958 20.7917 46.9898 20.6976 47.2044 20.6976C47.6542 20.6976 48.0482 21.1386 48.0658 21.6589C48.0746 21.9206 48.0864 22.1881 48.1011 22.4586C48.1452 23.417 48.1952 24.4048 48.0923 25.3514C48.0834 25.4396 48.0217 25.5131 47.9365 25.5337C47.9188 25.5366 47.9041 25.5396 47.8865 25.5396C47.8189 25.5396 47.7542 25.5072 47.716 25.4455C47.0016 24.3636 46.6458 22.8084 46.4753 21.6913C46.4312 21.4179 46.4988 21.1474 46.6576 20.9534M49.2094 21.6707C49.1918 21.4002 49.2829 21.1356 49.4564 20.9475C49.7562 20.6153 50.2678 20.6182 50.5618 20.9416C50.7323 21.1297 50.8205 21.3943 50.8028 21.6707L50.7969 21.7618C50.7264 22.9025 50.6411 24.3225 50.1972 25.4043C50.1649 25.4837 50.0914 25.5337 50.0091 25.5337C49.9267 25.5337 49.8532 25.4837 49.8209 25.4073C49.3682 24.3489 49.2829 22.9378 49.2182 21.803L49.2094 21.6736V21.6707ZM51.9023 22.4615C51.9141 22.191 51.9288 21.9235 51.9376 21.6619C51.9553 21.1415 52.3492 20.7005 52.799 20.7005C53.0136 20.7005 53.2077 20.7946 53.3458 20.9622C53.5046 21.1562 53.5722 21.4237 53.5281 21.7001C53.3546 22.8143 52.9989 24.3724 52.2875 25.4543C52.2493 25.5131 52.1846 25.5484 52.117 25.5484C52.0993 25.5484 52.0846 25.5484 52.067 25.5425C51.9847 25.5219 51.9229 25.4484 51.9112 25.3602C51.8083 24.4165 51.8553 23.4258 51.9023 22.4674M54.0102 25.3073C54.0926 24.7164 54.2101 24.1167 54.3248 23.5346C54.4483 22.9084 54.5747 22.2616 54.6541 21.6413C54.7217 21.1209 55.1333 20.6976 55.5713 20.6976C55.7918 20.6976 55.9829 20.7946 56.1152 20.9681C56.2651 21.168 56.3092 21.4384 56.2416 21.7118C55.8771 23.17 55.1744 24.5812 54.363 25.4837C54.3248 25.5278 54.2689 25.5513 54.2131 25.5513C54.1837 25.5513 54.1514 25.5454 54.1249 25.5307C54.0426 25.4896 53.9955 25.3985 54.0102 25.3073ZM56.1181 25.1456C56.2651 24.7164 56.4327 24.2931 56.5944 23.8815C56.906 23.0936 57.2 22.3469 57.3793 21.5384C57.4911 21.0357 57.9085 20.6447 58.3289 20.6447C58.5406 20.6447 58.7258 20.7417 58.8434 20.9093C58.9786 21.1033 59.0021 21.3649 58.9081 21.6295C58.4112 23.0377 57.4528 24.4636 56.4062 25.3514C56.3739 25.3808 56.3327 25.3955 56.2916 25.3955C56.2563 25.3955 56.221 25.3837 56.1887 25.3632C56.1211 25.3161 56.0946 25.2279 56.1211 25.1515M58.226 25.0633C58.3201 24.9075 58.4171 24.7517 58.5112 24.5959C59.1403 23.5698 59.7342 22.6026 60.0958 21.4561C60.2516 20.9622 60.672 20.5888 61.0748 20.5888C61.2806 20.5888 61.454 20.6829 61.5569 20.8446C61.6774 21.0357 61.6804 21.2973 61.5657 21.5501C60.9454 22.9231 59.7783 24.3166 58.4465 25.2779C58.4201 25.2985 58.3877 25.3073 58.3583 25.3073C58.3201 25.3073 58.2819 25.2926 58.2525 25.2632C58.1996 25.2103 58.1878 25.128 58.226 25.0662M60.2751 24.8575C61.16 23.8433 62.1655 22.8408 62.7593 21.3796C62.9592 20.8916 63.3826 20.5359 63.7677 20.5359C63.9647 20.5359 64.1264 20.6241 64.2146 20.7799C64.3233 20.9681 64.3057 21.2238 64.1705 21.4678C63.2062 23.2112 61.6098 24.3136 60.4368 25.0574C60.4162 25.0721 60.3927 25.078 60.3692 25.078C60.3339 25.078 60.2957 25.0604 60.2692 25.031C60.2281 24.981 60.2281 24.9075 60.2692 24.8605M62.2007 24.5841C63.362 23.7168 64.6761 22.732 65.6051 21.215C65.8903 20.7505 66.346 20.4506 66.7135 20.483C66.8987 20.5006 67.0398 20.5947 67.1045 20.7446C67.1838 20.9328 67.128 21.1797 66.9545 21.4061C65.6492 23.0906 63.6766 24.1284 62.3036 24.7634C62.2889 24.7693 62.2742 24.7723 62.2595 24.7723C62.2243 24.7723 62.189 24.7546 62.1713 24.7193C62.1449 24.6723 62.1566 24.6135 62.2007 24.5812M37.2441 21.3796C37.838 22.8408 38.8434 23.8433 39.7283 24.8575C39.7695 24.9075 39.7724 24.9781 39.7283 25.028C39.7018 25.0574 39.6666 25.0751 39.6313 25.0751C39.6078 25.0751 39.5843 25.0692 39.5637 25.0545C38.3907 24.3107 36.7943 23.2082 35.83 21.4649C35.6948 21.2209 35.6507 20.9475 35.7859 20.777C35.8829 20.6564 36.0241 20.6035 36.2034 20.5682C36.318 20.5447 36.4886 20.58 36.5621 20.6123C36.8737 20.7534 37.1001 21.0239 37.2441 21.3767M37.8027 24.5841C37.8438 24.6164 37.8556 24.6752 37.8291 24.7223C37.8115 24.7546 37.7762 24.7752 37.7409 24.7752C37.7262 24.7752 37.7115 24.7723 37.6968 24.7664C36.3269 24.1314 34.3513 23.0906 33.046 21.409C32.8725 21.1856 32.8166 20.9387 32.896 20.7476C32.9607 20.5976 33.1018 20.5006 33.287 20.4859C33.6545 20.4536 34.1102 20.7534 34.3954 21.2179C35.3244 22.7349 36.6385 23.7168 37.7997 24.587M40.8602 26.0129H59.1462C66.6899 26.0129 69.3476 20.0126 69.3476 20.0126H30.6558C30.6558 20.0126 34.2307 26.0129 40.8602 26.0129ZM72.8931 35.394H27.1133V36.2789H72.8931V35.394Z" fill="#988863"/>
<path d="M21.8506 69.7641H30.7055V68.1413H23.6616V64.5606H29.9676V62.9377H23.6616V59.4393H30.6291V57.8165H21.8477V69.7641H21.8506ZM40.4012 66.7919V66.7625C40.4012 65.0515 39.2664 64.2695 37.0851 63.7403C35.1095 63.267 34.6361 62.9142 34.6361 62.1175V62.0881C34.6361 61.409 35.2564 60.8651 36.3177 60.8651C37.2614 60.8651 38.1904 61.2356 39.1194 61.9264L40.0925 60.5564C39.0459 59.7156 37.8524 59.2599 36.3471 59.2599C34.298 59.2599 32.8222 60.4829 32.8222 62.2527V62.2821C32.8222 64.1842 34.0599 64.834 36.256 65.3631C38.1728 65.8041 38.5873 66.2039 38.5873 66.9419V66.9712C38.5873 67.7533 37.8788 68.2677 36.7587 68.2677C35.4769 68.2677 34.4891 67.7797 33.5013 66.9272L32.4106 68.2236C33.6483 69.329 35.1389 69.8729 36.7176 69.8729C38.8843 69.8729 40.4042 68.7234 40.4042 66.7919M46.6838 61.1238H49.9558V59.4422H41.5801V61.1238H44.8522V69.7641H46.6808V61.1238H46.6838ZM56.7999 65.663H53.2456L55.0154 61.5354L56.7999 65.663ZM60.4248 69.7641L55.8856 59.3687H54.204L49.6619 69.7641H51.5199L52.5812 67.2711H57.4614L58.508 69.7641H60.4248ZM65.2344 61.1238H68.5094V59.4422H60.1337V61.1238H63.4058V69.7641H65.2344V61.1238ZM72.2372 68.1413V65.369H77.4114V63.7462H72.2372V61.0621H78.0758V59.4393H70.4233V69.7612H78.1493V68.1384H72.2372V68.1413Z" fill="#988863"/>
<path d="M12.3034 53.8389L16.4457 41.8707H14.4995L11.5802 50.9696L9.09011 43.4611H7.36146L4.8655 50.9696L1.9462 41.8707H0L4.14229 53.8389H5.63575L8.22579 46.2658L10.8158 53.8389H12.3093H12.3034ZM22.9869 49.8025H19.4238L21.1995 45.6631L22.9899 49.8025H22.9869ZM26.6235 53.9124L22.0697 43.4876H20.3851L15.8313 53.9124H17.6951L18.7594 51.4135H23.6543L24.7038 53.9124H26.6265H26.6235ZM31.445 45.1751H34.7288V43.4905H26.3296V45.1751H29.6134V53.8389H31.445V45.1751ZM36.6485 53.8389H44.3981V52.2132H38.4683V49.432H43.6572V47.8063H38.4683V45.1163H44.3246V43.4905H36.6485V53.8419V53.8389ZM51.4185 48.6148L48.6374 45.1427H51.2833C52.6297 45.1427 53.4264 45.7484 53.4264 46.8596V46.889C53.4264 47.9062 52.6474 48.5736 51.4156 48.6148M55.6019 53.8389L52.5092 49.9789C54.2555 49.7437 55.2756 48.4854 55.2756 46.7861V46.7567C55.2756 45.8542 54.964 45.0869 54.4172 44.5254C53.7528 43.8757 52.7326 43.4905 51.4303 43.4905H46.8176V45.572L49.2694 48.6294H46.8176V53.8389H48.6139V50.2317L50.5424 50.2199L53.4558 53.8389H55.6019ZM59.5884 45.1457H65.4741V43.4905H57.7716V53.8419H59.5914V49.629H64.8096V47.9739H59.5914V45.1486L59.5884 45.1457ZM75.8401 48.7323C75.8401 50.7432 74.4054 52.3837 72.3504 52.3837C70.2955 52.3837 68.8314 50.7138 68.8314 48.7V48.6706C68.8314 46.6597 70.2661 45.0193 72.321 45.0193C74.376 45.0193 75.8401 46.6891 75.8401 48.7V48.7294V48.7323ZM77.7451 48.7V48.6706C77.7451 45.7572 75.5284 43.3494 72.3475 43.3494C69.1665 43.3494 66.9234 45.7895 66.9234 48.7V48.7294C66.9234 51.6428 69.1401 54.0535 72.321 54.0535C75.502 54.0535 77.7481 51.6134 77.7481 48.7M84.548 48.6148L81.7669 45.1427H84.4128C85.7592 45.1427 86.5559 45.7484 86.5559 46.8596V46.889C86.5559 47.9062 85.7769 48.5736 84.5451 48.6148M88.7344 53.8389L85.6416 49.9789C87.3879 49.7437 88.4081 48.4854 88.4081 46.7861V46.7567C88.4081 45.8542 88.0964 45.0869 87.5496 44.5254C86.8852 43.8757 85.8651 43.4905 84.5627 43.4905H79.95V45.572L82.4019 48.6294H79.95V53.8389H81.7463V50.2317L83.6749 50.2199L86.5883 53.8389H88.7344ZM98.095 48.6941C98.095 50.7197 96.675 52.1838 94.5024 52.1838H92.4622V45.1457H94.5024C96.675 45.1457 98.095 46.6391 98.095 48.6647V48.6941ZM100 48.6647V48.6353C100 45.7219 97.7539 43.4905 94.4995 43.4905H90.6394V53.8419H94.4995C97.7539 53.8419 100 51.5811 100 48.6677" fill="#988863"/>
</svg>
