<svg width="34" height="28" viewBox="0 0 34 28" fill="none" xmlns="http://www.w3.org/2000/svg">
<path d="M28.7637 26.8599H5.39389V27.5H28.7637V26.8599ZM16.5886 1.84192C16.6056 1.5612 16.4078 1.31451 16.1229 1.31238H16.1207C15.9549 1.31238 15.823 1.43573 15.823 1.58459C15.823 1.73346 15.957 1.85681 16.1229 1.85681C16.1782 1.85681 16.2271 1.83979 16.2717 1.8164C16.2653 1.85255 16.2483 1.93336 16.1973 2.04608C16.1292 2.20132 16.0335 2.4629 16.0335 2.69896C16.0335 2.90525 16.159 3.22637 16.512 3.3008C16.2207 2.72448 16.5758 2.05246 16.5907 1.83979M17.0799 0.5C16.5865 1.06782 16.5822 1.14438 17.0799 1.4655C17.5775 1.14438 17.5732 1.06782 17.0799 0.5ZM17.0841 1.79513C16.5716 2.40761 16.6375 3.069 17.0628 3.40076C17.5541 3.06474 17.5626 2.43738 17.0841 1.79513ZM18.3388 1.58459C18.3388 1.4336 18.2049 1.31238 18.0411 1.31238H18.039C17.754 1.31451 17.5562 1.5612 17.5732 1.84192C17.586 2.05458 17.9433 2.72448 17.6519 3.30293C18.005 3.22637 18.1304 2.90737 18.1304 2.70109C18.1304 2.46503 18.0347 2.20345 17.9667 2.0482C17.9156 1.93549 17.8986 1.85468 17.8944 1.81853C17.939 1.84192 17.9879 1.85893 18.0411 1.85893C18.207 1.85893 18.341 1.73559 18.341 1.58672M11.0444 4.2578H23.1153V3.82821H11.0444V4.2578ZM14.6363 10.9206C14.7023 10.9206 14.7618 10.8993 14.815 10.8717C14.8086 10.9164 14.7873 11.0121 14.7256 11.1503C14.6427 11.3396 14.5279 11.6564 14.5279 11.9414C14.5279 12.2264 14.7256 12.6921 15.3041 12.6921C15.8826 12.6921 15.957 12.2795 15.9527 12.2455C15.9485 12.2136 15.9123 12.2264 15.8868 12.2498C15.8613 12.2732 15.5019 12.4709 15.202 12.3263C14.9022 12.1817 14.9043 11.901 14.9362 11.7564C14.9894 11.5224 15.185 11.1588 15.202 10.9015C15.2233 10.5612 14.983 10.2635 14.6385 10.2592C14.6385 10.2592 14.6385 10.2592 14.6363 10.2592C14.4364 10.2592 14.2748 10.4081 14.2748 10.5888C14.2748 10.7696 14.4386 10.9206 14.6385 10.9206M19.4319 11.1503C19.3703 11.0142 19.3511 10.9164 19.3426 10.8717C19.3958 10.8993 19.4553 10.9206 19.5213 10.9206C19.7233 10.9206 19.8849 10.7717 19.8849 10.5888C19.8849 10.406 19.7233 10.2592 19.5234 10.2592C19.5234 10.2592 19.5213 10.2592 19.5191 10.2592C19.1725 10.2613 18.9322 10.5612 18.9556 10.9015C18.9726 11.1588 19.1682 11.5246 19.2193 11.7564C19.2512 11.901 19.2554 12.1817 18.9556 12.3263C18.6557 12.4709 18.2984 12.2732 18.2708 12.2498C18.2453 12.2264 18.2091 12.2136 18.2049 12.2455C18.2006 12.2774 18.275 12.6921 18.8535 12.6921C19.4319 12.6921 19.6297 12.2264 19.6297 11.9414C19.6297 11.6564 19.5149 11.3396 19.4319 11.1503ZM19.9998 11.6458C20.021 11.6713 20.0317 12.0605 19.9764 12.2774C19.9338 12.4433 19.8275 12.59 19.7467 12.6921H20.323C20.3358 12.5985 20.3421 12.4879 20.3421 12.3582C20.3421 12.0201 20.0699 11.6352 20.0508 11.6139C20.0189 11.5756 19.9742 11.6139 19.9998 11.6458ZM15.555 10.5506C15.5763 10.574 15.6146 10.9461 15.5784 11.1567C15.5423 11.3672 15.3934 11.5607 15.3317 11.65C15.3317 11.65 15.3317 11.65 15.3317 11.6522C15.3084 11.6926 15.2892 11.7351 15.2892 11.784C15.2892 11.9371 15.4253 12.0626 15.5955 12.0626C15.7039 12.0626 15.7954 12.0073 15.8507 11.9286H15.8549C15.857 11.9244 15.8613 11.9159 15.8655 11.9095C15.8719 11.8967 15.8783 11.884 15.8826 11.8712C15.923 11.767 15.9612 11.5543 15.9336 11.212C15.9081 10.8887 15.6188 10.5357 15.5997 10.5165C15.5678 10.4825 15.5253 10.5208 15.5529 10.5506M19.2873 6.75236H14.8745V7.1862H19.2873V6.75236ZM15.1233 7.70085C15.0255 8.58767 14.5917 9.38091 14.2748 9.85728H14.9192C15.1382 9.38729 15.4381 8.60255 15.5104 7.70085H15.1233ZM17.3244 7.6966H16.8332C16.7672 8.63658 16.6396 9.39367 16.5439 9.85728H17.6158C17.5201 9.39367 17.3904 8.63658 17.3265 7.6966M19.8849 9.85728C19.568 9.38091 19.1342 8.58767 19.0364 7.70085H18.6493C18.7216 8.60255 19.0215 9.38729 19.2405 9.85728H19.8849ZM18.8684 11.7862C18.8684 11.7372 18.8514 11.6947 18.8258 11.6543C18.8258 11.6543 18.8258 11.6543 18.8258 11.6522C18.7663 11.5629 18.6174 11.3693 18.5791 11.1588C18.5409 10.9483 18.5791 10.574 18.6025 10.5527C18.6302 10.5229 18.5877 10.4846 18.5558 10.5187C18.5366 10.5378 18.2474 10.8908 18.2219 11.2141C18.1964 11.5565 18.2325 11.7691 18.2729 11.8733C18.2772 11.8861 18.2835 11.8989 18.2899 11.9116C18.2942 11.918 18.2963 11.9265 18.3006 11.9308H18.3048C18.3601 12.0095 18.4515 12.0647 18.56 12.0647C18.728 12.0647 18.8662 11.9393 18.8662 11.7862M18.107 9.85728H18.8429C18.6451 9.37878 18.3644 8.58341 18.2665 7.6966H17.8178C17.8816 8.64296 18.0113 9.40217 18.107 9.85728ZM17.8263 12.1923C17.788 11.9733 17.8263 11.5841 17.8497 11.5607C17.8795 11.531 17.8348 11.4905 17.8008 11.5267C17.7817 11.548 17.4797 11.9138 17.4541 12.2498C17.4393 12.4284 17.4435 12.573 17.4541 12.6879H18.0688C18.0007 12.59 17.8625 12.4008 17.8263 12.1923ZM17.4329 11.2758C17.552 11.1375 17.7412 11.044 17.8412 10.995L17.8922 10.9674C17.9369 10.9376 17.9709 10.9057 17.9943 10.8696C18.0369 10.7994 18.0475 10.7186 18.022 10.642C17.9986 10.5655 17.9412 10.5017 17.8646 10.4612C17.771 10.4145 17.6583 10.4145 17.5626 10.457H17.5562L17.5392 10.4634C17.535 10.4655 17.5307 10.4698 17.5179 10.4761C17.5052 10.4846 17.4924 10.4931 17.4797 10.5038C17.4222 10.5506 17.2713 10.6952 17.0926 11.044C17.0862 11.0567 17.0799 11.0716 17.0735 11.0844C17.0671 11.0716 17.0607 11.0567 17.0543 11.044C16.8757 10.6952 16.7247 10.5506 16.6673 10.5059C16.6545 10.4953 16.6439 10.4868 16.6226 10.474C16.6184 10.4698 16.612 10.4676 16.6035 10.4634L16.5865 10.457C16.4886 10.4145 16.3759 10.4145 16.2845 10.4612C16.125 10.5421 16.0676 10.725 16.1569 10.8696C16.1803 10.9078 16.2143 10.9397 16.259 10.9674L16.31 10.995C16.4121 11.0461 16.6014 11.1397 16.7183 11.2758C16.8544 11.4331 16.9948 11.733 16.999 11.7628C16.9905 11.7989 17.0139 11.8308 17.0501 11.8372C17.0543 11.8372 17.0586 11.8372 17.0628 11.8372C17.065 11.8372 17.0692 11.8351 17.0713 11.8351C17.0735 11.8351 17.0756 11.8372 17.0799 11.8372C17.0841 11.8372 17.0884 11.8372 17.0926 11.8372C17.1288 11.8308 17.1522 11.7968 17.1458 11.767C17.15 11.7309 17.2904 11.431 17.4265 11.2736M16.7034 12.6879C16.7141 12.573 16.7183 12.4305 16.7034 12.2498C16.6779 11.9116 16.3759 11.5458 16.3568 11.5267C16.3228 11.4905 16.2802 11.531 16.3079 11.5607C16.3313 11.5841 16.3717 11.9733 16.3313 12.1923C16.2951 12.4008 16.1548 12.59 16.0888 12.6879H16.7034ZM16.0527 9.85728C16.1484 9.40217 16.2781 8.64296 16.3419 7.6966H15.8932C15.7954 8.58341 15.5168 9.37878 15.3169 9.85728H16.0527ZM13.8367 12.6921H14.413C14.3343 12.5922 14.2259 12.4433 14.1834 12.2774C14.1281 12.0605 14.1387 11.6713 14.16 11.6458C14.1855 11.6139 14.1408 11.5756 14.1089 11.6139C14.0898 11.6352 13.8176 12.0201 13.8176 12.3582C13.8176 12.4879 13.8261 12.5964 13.8367 12.6921ZM12.7904 5.63374C13.035 5.83365 13.405 6.23984 14.0451 6.23984H14.496C14.2727 6.19305 14.0621 6.09948 13.8729 5.95061C13.6134 5.74433 13.4241 5.45936 13.3029 5.12547C13.6219 5.14036 13.9239 5.24244 14.1834 5.44872C14.4343 5.64863 14.6193 5.92297 14.7405 6.24197H15.5104C15.4211 6.18667 15.336 6.12287 15.2616 6.04631C15.0213 5.7975 14.8915 5.45298 14.8575 5.05529C15.2275 5.07869 15.5529 5.20629 15.7932 5.4551C15.991 5.66139 16.1122 5.93147 16.1697 6.24197H16.7034C16.6014 6.09948 16.5461 5.95274 16.5461 5.79962C16.5461 5.51252 16.7417 5.24031 17.0799 4.99787C17.418 5.24031 17.6136 5.51252 17.6136 5.79962C17.6136 5.95274 17.5584 6.09948 17.4563 6.24197H17.9901C18.0475 5.93147 18.1687 5.66139 18.3665 5.4551C18.6068 5.20629 18.93 5.07869 19.3022 5.05529C19.2682 5.45298 19.1385 5.79537 18.8981 6.04631C18.8237 6.125 18.7408 6.1888 18.6493 6.24197H19.4192C19.5404 5.92297 19.7233 5.64863 19.9764 5.44872C20.2358 5.24244 20.5399 5.14036 20.8568 5.12547C20.7356 5.45936 20.5463 5.74433 20.2869 5.95061C20.0976 6.09948 19.887 6.19518 19.6637 6.23984H20.1146C20.7547 6.23984 21.1269 5.83365 21.3693 5.63374C21.6798 5.37642 22.4582 4.79371 22.5688 4.71503H11.5952C11.7058 4.79371 12.4842 5.37642 12.7925 5.63374M2.68241 13.7448H31.4773V13.311H2.68241V13.7448ZM14.1855 23.302C14.1855 23.302 14.9808 22.0154 15.1148 20.3842H14.6236C14.4492 21.9813 13.2944 23.302 13.2944 23.302H14.1855ZM15.6188 20.3821C15.4423 21.9771 14.7384 23.3062 14.7384 23.3062H15.7337C15.7337 23.3062 16.0612 22.1323 16.1782 20.3821H15.6188ZM12.7309 23.3062C12.7309 23.3062 14.0005 21.8431 14.2174 20.3821H13.8899C13.5858 21.7495 11.9631 23.2999 11.9631 23.2999L12.7309 23.3084V23.3062ZM20.3889 19.3273H13.7708V19.7611H20.3889V19.3273ZM17.3521 20.3821H16.8055C16.6949 21.9686 16.4227 23.0829 16.3632 23.3062H17.7923C17.7349 23.0829 17.4605 21.9686 17.3499 20.3821M18.4218 23.3062H19.4171C19.4171 23.3062 18.7131 21.9771 18.5366 20.3821H17.9773C18.0943 22.1345 18.4218 23.3062 18.4218 23.3062ZM19.5361 20.3863H19.0449C19.1767 22.0175 19.9742 23.3041 19.9742 23.3041H20.8653C20.8653 23.3041 19.7105 21.9835 19.5361 20.3863ZM20.2677 20.3821H19.9423C20.1571 21.8452 21.4289 23.3062 21.4289 23.3062L22.1966 23.2977C22.1966 23.2977 20.5739 21.7474 20.2698 20.38M23.3684 24.0655H10.7913V24.7034H23.3684V24.0655ZM10.97 18.1406C10.0066 17.4452 9.16232 16.4393 8.7136 15.444C8.63279 15.2632 8.63491 15.0718 8.71998 14.9336C8.79441 14.8166 8.91989 14.7486 9.06875 14.7486C9.3601 14.7486 9.66422 15.0187 9.77693 15.3759C10.0385 16.2075 10.4681 16.9071 10.9232 17.6472C10.9912 17.7599 11.0614 17.8726 11.1295 17.9853C11.1571 18.0321 11.1507 18.0917 11.1103 18.1278C11.0891 18.1491 11.0614 18.1597 11.0338 18.1597C11.0104 18.1597 10.9891 18.1534 10.97 18.1385M10.6382 15.5014C10.5723 15.3121 10.5893 15.1229 10.6871 14.9804C10.7701 14.8592 10.9062 14.789 11.0593 14.789C11.3634 14.789 11.6654 15.074 11.7462 15.4355C11.8759 16.0203 12.0886 16.5584 12.314 17.1304C12.431 17.426 12.5522 17.7323 12.6585 18.0449C12.6777 18.1002 12.6585 18.164 12.6096 18.198C12.5862 18.2129 12.5607 18.2214 12.5352 18.2214C12.5054 18.2214 12.4757 18.2108 12.4523 18.1895C11.6952 17.5473 10.9998 16.5158 10.6403 15.4972M13.9218 18.2937C13.3348 17.6408 12.8265 16.62 12.5628 15.5652C12.5139 15.3674 12.5458 15.1697 12.6543 15.0272C12.7479 14.9017 12.8882 14.8315 13.0477 14.8315C13.3646 14.8315 13.6645 15.1378 13.7112 15.5142C13.7687 15.9629 13.8622 16.4308 13.9494 16.8837C14.0324 17.3027 14.1174 17.7387 14.177 18.1661C14.1855 18.232 14.1536 18.298 14.094 18.3277C14.0728 18.3384 14.0515 18.3426 14.0302 18.3426C13.9898 18.3426 13.9494 18.3256 13.9218 18.2937ZM14.6619 15.0187C14.7618 14.8974 14.9022 14.8294 15.0574 14.8294C15.3828 14.8294 15.6678 15.1484 15.6805 15.5248C15.6869 15.7141 15.6954 15.9076 15.706 16.1033C15.7379 16.7966 15.7741 17.5111 15.6997 18.1959C15.6933 18.2597 15.6486 18.3129 15.5869 18.3277C15.5742 18.3299 15.5636 18.332 15.5508 18.332C15.5019 18.332 15.4551 18.3086 15.4274 18.2639C14.9107 17.4813 14.6533 16.3563 14.53 15.5482C14.4981 15.3504 14.547 15.1548 14.6619 15.0144M16.5057 15.5333C16.4929 15.3377 16.5588 15.1463 16.6843 15.0102C16.9012 14.7698 17.2713 14.772 17.4839 15.0059C17.6073 15.142 17.6711 15.3334 17.6583 15.5333L17.6541 15.5992C17.603 16.4244 17.5413 17.4516 17.2202 18.2342C17.1968 18.2916 17.1437 18.3277 17.0841 18.3277C17.0246 18.3277 16.9714 18.2916 16.948 18.2363C16.6205 17.4707 16.5588 16.4499 16.512 15.629L16.5057 15.5354V15.5333ZM18.4537 16.1054C18.4622 15.9097 18.4728 15.7162 18.4792 15.5269C18.492 15.1505 18.7769 14.8315 19.1023 14.8315C19.2575 14.8315 19.3979 14.8996 19.4979 15.0208C19.6127 15.1612 19.6616 15.3547 19.6297 15.5546C19.5042 16.3606 19.2469 17.4877 18.7323 18.2703C18.7046 18.3129 18.6578 18.3384 18.6089 18.3384C18.5962 18.3384 18.5855 18.3384 18.5728 18.3341C18.5132 18.3192 18.4686 18.2661 18.4601 18.2023C18.3856 17.5196 18.4196 16.8029 18.4537 16.1096M19.9806 18.1661C20.0402 17.7387 20.1252 17.3048 20.2082 16.8837C20.2975 16.4308 20.3889 15.9629 20.4464 15.5142C20.4953 15.1378 20.793 14.8315 21.1099 14.8315C21.2694 14.8315 21.4076 14.9017 21.5033 15.0272C21.6118 15.1718 21.6437 15.3674 21.5947 15.5652C21.331 16.62 20.8228 17.6408 20.2358 18.2937C20.2082 18.3256 20.1678 18.3426 20.1274 18.3426C20.1061 18.3426 20.0827 18.3384 20.0636 18.3277C20.004 18.298 19.97 18.232 19.9806 18.1661ZM21.5033 18.047C21.6096 17.7365 21.7309 17.4303 21.8478 17.1326C22.0732 16.5626 22.2859 16.0224 22.4156 15.4376C22.4964 15.074 22.7984 14.7911 23.1025 14.7911C23.2557 14.7911 23.3896 14.8613 23.4747 14.9825C23.5725 15.1229 23.5895 15.3121 23.5215 15.5035C23.1621 16.5222 22.4688 17.5536 21.7117 18.1959C21.6883 18.2172 21.6585 18.2278 21.6288 18.2278C21.6033 18.2278 21.5777 18.2193 21.5543 18.2044C21.5054 18.1704 21.4863 18.1066 21.5054 18.0513M23.0281 17.9875C23.0962 17.8748 23.1663 17.7621 23.2344 17.6493C23.6895 16.9071 24.1191 16.2075 24.3807 15.3781C24.4934 15.0208 24.7975 14.7507 25.0888 14.7507C25.2377 14.7507 25.3632 14.8188 25.4376 14.9357C25.5248 15.074 25.5269 15.2632 25.444 15.4461C24.9953 16.4393 24.151 17.4473 23.1876 18.1427C23.1685 18.1576 23.1451 18.164 23.1238 18.164C23.0962 18.164 23.0685 18.1534 23.0472 18.1321C23.009 18.0938 23.0005 18.0343 23.0281 17.9896M24.5104 17.8386C25.1505 17.1049 25.8778 16.3797 26.3074 15.3228C26.452 14.9698 26.7583 14.7124 27.0368 14.7124C27.1793 14.7124 27.2963 14.7762 27.3601 14.8889C27.4388 15.025 27.426 15.2101 27.3282 15.3866C26.6307 16.6477 25.4759 17.4452 24.6274 17.9832C24.6125 17.9939 24.5955 17.9981 24.5784 17.9981C24.5529 17.9981 24.5253 17.9853 24.5061 17.9641C24.4764 17.9279 24.4764 17.8748 24.5061 17.8407M25.9033 17.6408C26.7434 17.0135 27.694 16.301 28.366 15.2037C28.5723 14.8677 28.9019 14.6508 29.1678 14.6741C29.3017 14.6869 29.4038 14.755 29.4506 14.8634C29.508 14.9995 29.4676 15.1782 29.3421 15.3419C28.3979 16.5605 26.9709 17.3112 25.9778 17.7706C25.9671 17.7748 25.9565 17.7769 25.9459 17.7769C25.9204 17.7769 25.8948 17.7642 25.8821 17.7387C25.8629 17.7046 25.8714 17.6621 25.9033 17.6387M7.85231 15.3228C8.28189 16.3797 9.0092 17.1049 9.64933 17.8386C9.6791 17.8748 9.68123 17.9258 9.64933 17.962C9.63019 17.9832 9.60467 17.996 9.57915 17.996C9.56213 17.996 9.54512 17.9917 9.53024 17.9811C8.6817 17.4431 7.52693 16.6456 6.82938 15.3845C6.73156 15.2079 6.69966 15.0102 6.79749 14.8868C6.86766 14.7996 6.96974 14.7613 7.09947 14.7358C7.18241 14.7188 7.30576 14.7443 7.35892 14.7677C7.58435 14.8698 7.7481 15.0655 7.85231 15.3207M8.25424 17.6408C8.28402 17.6642 8.29252 17.7068 8.27338 17.7408C8.26062 17.7642 8.2351 17.7791 8.20958 17.7791C8.19895 17.7791 8.18832 17.7769 8.17768 17.7727C7.18666 17.3133 5.75755 16.5605 4.81332 15.344C4.68784 15.1824 4.64744 15.0038 4.70486 14.8655C4.75164 14.7571 4.85372 14.6869 4.9877 14.6763C5.25353 14.6529 5.58316 14.8698 5.78945 15.2058C6.46147 16.3032 7.41209 17.0135 8.25212 17.643M10.466 18.6744H23.6938C29.1507 18.6744 31.0732 14.3339 31.0732 14.3339H3.08435C3.08435 14.3339 5.67036 18.6744 10.466 18.6744ZM33.638 25.4605H0.521729V26.1007H33.638V25.4605Z" fill="#84754E"/>
</svg>
